<svg xmlns="http://www.w3.org/2000/svg" xmlns:xlink="http://www.w3.org/1999/xlink" width="500" zoomAndPan="magnify" viewBox="0 0 375 374.999991" height="500" preserveAspectRatio="xMidYMid meet" version="1.0"><defs><g/><clipPath id="d44e0a5796"><path d="M 174.390625 140.683594 L 200.640625 140.683594 L 200.640625 166.933594 L 174.390625 166.933594 Z M 174.390625 140.683594 " clip-rule="nonzero"/></clipPath></defs><g fill="#233dff" fill-opacity="1"><g transform="translate(85.855773, 206.624986)"><g><path d="M 1.015625 -32.421875 L 1.015625 -39.671875 L 35.9375 -39.671875 L 35.9375 -32.421875 L 22.609375 -32.421875 L 22.609375 0 L 14.390625 0 L 14.390625 -32.421875 Z M 1.015625 -32.421875 "/></g></g></g><g fill="#233dff" fill-opacity="1"><g transform="translate(120.822063, 206.624986)"><g><path d="M 29.53125 -3.6875 C 27.71875 -2.207031 25.851562 -1.128906 23.9375 -0.453125 C 22.03125 0.222656 19.90625 0.5625 17.5625 0.5625 C 15.332031 0.5625 13.242188 0.164062 11.296875 -0.625 C 9.359375 -1.414062 7.679688 -2.488281 6.265625 -3.84375 C 4.847656 -5.207031 3.734375 -6.820312 2.921875 -8.6875 C 2.109375 -10.5625 1.703125 -12.578125 1.703125 -14.734375 C 1.703125 -16.847656 2.085938 -18.835938 2.859375 -20.703125 C 3.640625 -22.578125 4.707031 -24.203125 6.0625 -25.578125 C 7.425781 -26.960938 9.039062 -28.050781 10.90625 -28.84375 C 12.78125 -29.632812 14.773438 -30.03125 16.890625 -30.03125 C 18.960938 -30.03125 20.894531 -29.625 22.6875 -28.8125 C 24.488281 -28 26.039062 -26.894531 27.34375 -25.5 C 28.644531 -24.101562 29.664062 -22.429688 30.40625 -20.484375 C 31.144531 -18.535156 31.515625 -16.429688 31.515625 -14.171875 L 31.515625 -12.125 L 9.515625 -12.125 C 10.046875 -10.269531 11.066406 -8.773438 12.578125 -7.640625 C 14.085938 -6.515625 15.863281 -5.953125 17.90625 -5.953125 C 19.1875 -5.953125 20.394531 -6.160156 21.53125 -6.578125 C 22.664062 -6.992188 23.628906 -7.578125 24.421875 -8.328125 Z M 16.71875 -23.625 C 14.9375 -23.625 13.40625 -23.085938 12.125 -22.015625 C 10.84375 -20.941406 9.957031 -19.5 9.46875 -17.6875 L 23.921875 -17.6875 C 23.421875 -19.414062 22.519531 -20.835938 21.21875 -21.953125 C 19.914062 -23.066406 18.414062 -23.625 16.71875 -23.625 Z M 16.71875 -23.625 "/></g></g></g><g fill="#233dff" fill-opacity="1"><g transform="translate(152.048012, 206.624986)"><g><path d="M 0.5625 -3.515625 L 4.421875 -8.671875 C 6.160156 -7.535156 7.800781 -6.691406 9.34375 -6.140625 C 10.894531 -5.597656 12.445312 -5.328125 14 -5.328125 C 15.738281 -5.328125 17.125 -5.609375 18.15625 -6.171875 C 19.195312 -6.742188 19.71875 -7.5 19.71875 -8.4375 C 19.71875 -9.195312 19.425781 -9.800781 18.84375 -10.25 C 18.257812 -10.707031 17.320312 -11.03125 16.03125 -11.21875 L 10.375 -12.078125 C 7.457031 -12.523438 5.234375 -13.46875 3.703125 -14.90625 C 2.179688 -16.34375 1.421875 -18.25 1.421875 -20.625 C 1.421875 -23.457031 2.535156 -25.722656 4.765625 -27.421875 C 6.992188 -29.128906 9.976562 -29.984375 13.71875 -29.984375 C 15.863281 -29.984375 17.957031 -29.671875 20 -29.046875 C 22.039062 -28.421875 23.988281 -27.503906 25.84375 -26.296875 L 22.109375 -21.3125 C 20.484375 -22.25 18.929688 -22.953125 17.453125 -23.421875 C 15.984375 -23.898438 14.492188 -24.140625 12.984375 -24.140625 C 11.578125 -24.140625 10.445312 -23.875 9.59375 -23.34375 C 8.75 -22.820312 8.328125 -22.125 8.328125 -21.25 C 8.328125 -20.457031 8.640625 -19.84375 9.265625 -19.40625 C 9.890625 -18.976562 10.921875 -18.664062 12.359375 -18.46875 L 18.015625 -17.625 C 20.890625 -17.207031 23.109375 -16.257812 24.671875 -14.78125 C 26.242188 -13.3125 27.03125 -11.445312 27.03125 -9.1875 C 27.03125 -7.78125 26.695312 -6.484375 26.03125 -5.296875 C 25.375 -4.109375 24.476562 -3.078125 23.34375 -2.203125 C 22.21875 -1.335938 20.859375 -0.660156 19.265625 -0.171875 C 17.679688 0.316406 15.960938 0.5625 14.109375 0.5625 C 11.429688 0.5625 8.921875 0.210938 6.578125 -0.484375 C 4.234375 -1.179688 2.226562 -2.191406 0.5625 -3.515625 Z M 0.5625 -3.515625 "/></g></g></g><g fill="#233dff" fill-opacity="1"><g transform="translate(177.890137, 206.624986)"><g><path d="M 7.078125 -8.328125 L 7.078125 -23.015625 L 1.015625 -23.015625 L 1.015625 -29.53125 L 7.078125 -29.53125 L 7.078125 -37.0625 L 14.84375 -38.8125 L 14.84375 -29.53125 L 23.234375 -29.53125 L 23.234375 -23.015625 L 14.84375 -23.015625 L 14.84375 -9.921875 C 14.84375 -8.523438 15.144531 -7.539062 15.75 -6.96875 C 16.351562 -6.40625 17.410156 -6.125 18.921875 -6.125 C 19.640625 -6.125 20.320312 -6.171875 20.96875 -6.265625 C 21.613281 -6.359375 22.3125 -6.535156 23.0625 -6.796875 L 23.0625 -0.453125 C 22.226562 -0.191406 21.226562 0.0195312 20.0625 0.1875 C 18.894531 0.363281 17.894531 0.453125 17.0625 0.453125 C 13.769531 0.453125 11.28125 -0.289062 9.59375 -1.78125 C 7.914062 -3.28125 7.078125 -5.460938 7.078125 -8.328125 Z M 7.078125 -8.328125 "/></g></g></g><g fill="#233dff" fill-opacity="1"><g transform="translate(199.935244, 206.624986)"><g><path d="M 6.90625 -33.046875 C 5.695312 -33.046875 4.660156 -33.476562 3.796875 -34.34375 C 2.929688 -35.207031 2.5 -36.242188 2.5 -37.453125 C 2.5 -38.671875 2.929688 -39.710938 3.796875 -40.578125 C 4.660156 -41.441406 5.695312 -41.875 6.90625 -41.875 C 8.125 -41.875 9.164062 -41.441406 10.03125 -40.578125 C 10.894531 -39.710938 11.328125 -38.671875 11.328125 -37.453125 C 11.328125 -36.242188 10.894531 -35.207031 10.03125 -34.34375 C 9.164062 -33.476562 8.125 -33.046875 6.90625 -33.046875 Z M 10.828125 -29.53125 L 10.828125 0 L 3.0625 0 L 3.0625 -29.53125 Z M 10.828125 -29.53125 "/></g></g></g><g fill="#233dff" fill-opacity="1"><g transform="translate(211.779409, 206.624986)"><g><path d="M 1.015625 -29.53125 L 7.59375 -29.53125 L 7.59375 -32.359375 C 7.59375 -35.648438 8.554688 -38.179688 10.484375 -39.953125 C 12.410156 -41.734375 15.1875 -42.625 18.8125 -42.625 C 19.601562 -42.625 20.414062 -42.570312 21.25 -42.46875 C 22.082031 -42.375 22.800781 -42.253906 23.40625 -42.109375 L 23.40625 -35.59375 C 22.6875 -35.738281 22.050781 -35.847656 21.5 -35.921875 C 20.957031 -36.003906 20.382812 -36.046875 19.78125 -36.046875 C 18.300781 -36.046875 17.191406 -35.722656 16.453125 -35.078125 C 15.722656 -34.429688 15.359375 -33.46875 15.359375 -32.1875 L 15.359375 -29.53125 L 23.40625 -29.53125 L 23.40625 -23.015625 L 15.359375 -23.015625 L 15.359375 0 L 7.59375 0 L 7.59375 -23.015625 L 1.015625 -23.015625 Z M 1.015625 -29.53125 "/></g></g></g><g fill="#00bf63" fill-opacity="1"><g transform="translate(234.226857, 206.624986)"><g><path d="M -0.234375 0 L 16.09375 -39.671875 L 25.609375 -39.671875 L 41.703125 0 L 32.8125 0 L 28.796875 -10.421875 L 12.40625 -10.421875 L 8.328125 0 Z M 14.96875 -17 L 26.296875 -17 L 20.6875 -31.625 Z M 14.96875 -17 "/></g></g></g><g fill="#00bf63" fill-opacity="1"><g transform="translate(273.726895, 206.624986)"><g><path d="M 3.578125 0 L 3.578125 -39.671875 L 11.78125 -39.671875 L 11.78125 0 Z M 3.578125 0 "/></g></g></g><g clip-path="url(#d44e0a5796)"><path fill="#8c52ff" d="M 200.601562 153.789062 C 190.773438 155.597656 189.304688 157.066406 187.496094 166.894531 C 185.6875 157.066406 184.21875 155.597656 174.390625 153.789062 C 184.21875 151.980469 185.6875 150.511719 187.496094 140.683594 C 189.304688 150.511719 190.773438 151.980469 200.601562 153.789062 Z M 200.601562 153.789062 " fill-opacity="1" fill-rule="nonzero"/></g></svg>